# Blender 4.5.4 LTS
# www.blender.org
mtllib arvore2.mtl
o Cylinder_Material.001_0
v -0.000003 64.602097 -15.411538
v -0.000003 208.958603 -15.411581
v 21.773111 208.958603 -6.392861
v 21.773111 64.602104 -6.392817
v 21.773111 64.602104 -6.392817
v 21.773111 208.958603 -6.392861
v 30.791832 208.958603 15.380260
v 30.791832 64.602112 15.380302
v 30.791832 64.602112 15.380302
v 30.791832 208.958603 15.380260
v 21.773111 208.958618 37.153374
v 21.773111 64.602112 37.153419
v 21.773111 64.602112 37.153419
v 21.773111 208.958618 37.153374
v -0.000006 208.958618 46.172096
v -0.000006 64.602119 46.172142
v -0.000006 64.602119 46.172142
v -0.000006 208.958618 46.172096
v -21.773123 208.958618 37.153370
v -21.773123 64.602112 37.153416
v -21.773123 64.602112 37.153416
v -21.773123 208.958618 37.153370
v -30.791838 208.958603 15.380257
v -30.791838 64.602112 15.380300
v -30.791838 64.602112 15.380300
v -30.791838 208.958603 15.380257
v -21.773123 208.958603 -6.392859
v -21.773123 64.602104 -6.392816
v -21.773123 64.602104 -6.392816
v -21.773123 208.958603 -6.392859
v -0.000003 208.958603 -15.411581
v -0.000003 64.602097 -15.411538
v 21.773111 208.958603 -6.392861
v -0.000003 208.958603 -15.411581
v -21.773123 208.958603 -6.392859
v -30.791838 208.958603 15.380257
v -21.773123 208.958618 37.153370
v -0.000006 208.958618 46.172096
v 21.773111 208.958618 37.153374
v 30.791832 208.958603 15.380260
v -0.000003 64.602097 -15.411538
v 21.773111 64.602104 -6.392817
v 30.791832 64.602112 15.380302
v 21.773111 64.602112 37.153419
v -0.000006 64.602119 46.172142
v -21.773123 64.602112 37.153416
v -30.791838 64.602112 15.380300
v -21.773123 64.602104 -6.392816
vn 0.3827 -0.0000 -0.9239
vn 0.9239 -0.0000 -0.3827
vn 0.9239 -0.0000 0.3827
vn 0.3827 -0.0000 0.9239
vn -0.3827 -0.0000 0.9239
vn -0.9239 -0.0000 0.3827
vn -0.9239 -0.0000 -0.3827
vn -0.3827 -0.0000 -0.9239
vn -0.0000 1.0000 -0.0000
vn -0.0000 -1.0000 -0.0000
s 0
usemtl Material.001
f 1//1 2//1 3//1
f 1//1 3//1 4//1
f 5//2 6//2 7//2
f 5//2 7//2 8//2
f 9//3 10//3 11//3
f 9//3 11//3 12//3
f 13//4 14//4 15//4
f 13//4 15//4 16//4
f 17//5 18//5 19//5
f 17//5 19//5 20//5
f 21//6 22//6 23//6
f 21//6 23//6 24//6
f 25//7 26//7 27//7
f 25//7 27//7 28//7
f 29//8 30//8 31//8
f 29//8 31//8 32//8
f 37//9 35//9 36//9
f 35//9 37//9 38//9
f 35//9 38//9 34//9
f 34//9 38//9 39//9
f 34//9 39//9 33//9
f 33//9 39//9 40//9
f 48//10 46//10 47//10
f 46//10 48//10 41//10
f 46//10 41//10 45//10
f 45//10 41//10 44//10
f 44//10 41//10 42//10
f 44//10 42//10 43//10
o Cylinder_Material.002_0
v 58.950962 396.286713 70.890526
v 5.014613 500.295105 32.396801
v -10.191872 396.286713 97.118469
v -6.000442 306.112152 -94.999199
v -7.014954 457.813141 36.178799
v 69.968880 306.112152 -76.898865
v 0.000000 204.585129 -139.387100
v 0.000000 383.297791 21.766239
v 98.561501 204.585144 -98.561577
v 68.186638 396.286682 32.474716
v 5.014613 500.295105 32.396801
v 58.950962 396.286713 70.890526
v -73.249969 306.112152 -76.778297
v -7.014954 457.813141 36.178799
v -6.000442 306.112152 -94.999199
v 98.561501 204.585144 -98.561577
v 0.000000 383.297791 21.766239
v 139.387009 204.585175 -0.000056
v -65.019455 396.286713 67.984001
v 5.014613 500.295105 32.396801
v -70.275040 396.286682 12.826637
v -91.686966 306.112183 11.882659
v -7.014954 457.813141 36.178799
v -73.249969 306.112152 -76.778297
v 139.387009 204.585175 -0.000056
v 0.000000 383.297791 21.766239
v 98.561501 204.585205 120.327812
v -70.275040 396.286682 12.826637
v 5.014613 500.295105 32.396801
v -41.140579 396.286682 -42.000965
v -52.429104 306.112213 102.885361
v -7.014954 457.813141 36.178799
v -91.686966 306.112183 11.882659
v 98.561501 204.585205 120.327812
v 0.000000 383.297791 21.766239
v -0.000012 204.585220 161.153320
v -41.140579 396.286682 -42.000965
v 5.014613 500.295105 32.396801
v 7.119767 396.286682 -50.154137
v 36.231876 306.112213 131.301361
v -7.014954 457.813141 36.178799
v -52.429104 306.112213 102.885361
v -0.000012 204.585220 161.153320
v 0.000000 383.297791 21.766239
v -98.561516 204.585205 98.561440
v 7.119767 396.286682 -50.154137
v 5.014613 500.295105 32.396801
v 50.018848 396.286682 -26.895418
v 101.429535 306.112213 56.393600
v -7.014954 457.813141 36.178799
v 36.231876 306.112213 131.301361
v -98.561516 204.585205 98.561440
v 0.000000 383.297791 21.766239
v -139.387009 204.585175 -0.000063
v 98.694756 306.112183 -1.169160
v -7.014954 457.813141 36.178799
v 101.429535 306.112213 56.393600
v 69.968880 306.112152 -76.898865
v -7.014954 457.813141 36.178799
v 98.694756 306.112183 -1.169160
v -139.387009 204.585175 -0.000063
v 0.000000 383.297791 21.766239
v -98.561516 204.585144 -98.561569
v -10.191872 396.286713 97.118469
v 5.014613 500.295105 32.396801
v -65.019455 396.286713 67.984001
v -98.561516 204.585144 -98.561569
v 0.000000 383.297791 21.766239
v 0.000000 204.585129 -139.387100
v 50.018848 396.286682 -26.895418
v 5.014613 500.295105 32.396801
v 68.186638 396.286682 32.474716
v 69.968880 306.112152 -76.898865
v 98.694756 306.112183 -1.169160
v 101.429535 306.112213 56.393600
v 36.231876 306.112213 131.301361
v -52.429104 306.112213 102.885361
v -91.686966 306.112183 11.882659
v -73.249969 306.112152 -76.778297
v -6.000442 306.112152 -94.999199
v 0.000000 204.585129 -139.387100
v 98.561501 204.585144 -98.561577
v 139.387009 204.585175 -0.000056
v 98.561501 204.585205 120.327812
v -0.000012 204.585220 161.153320
v -98.561516 204.585205 98.561440
v -139.387009 204.585175 -0.000063
v -98.561516 204.585144 -98.561569
v 50.018848 396.286682 -26.895418
v 68.186638 396.286682 32.474716
v 58.950962 396.286713 70.890526
v -10.191872 396.286713 97.118469
v -65.019455 396.286713 67.984001
v -70.275040 396.286682 12.826637
v -41.140579 396.286682 -42.000965
v 7.119767 396.286682 -50.154137
vn 0.3134 0.4683 0.8261
vn 0.1772 0.6444 -0.7439
vn 0.2940 0.6401 -0.7098
vn 0.8371 0.5086 0.2013
vn -0.2009 0.6400 -0.7417
vn 0.7330 0.6087 -0.3036
vn -0.8145 0.5750 0.0776
vn -0.8473 0.5011 -0.1762
vn 0.7760 0.5732 0.2633
vn -0.7141 0.5883 -0.3795
vn -0.8376 0.4096 0.3613
vn 0.3105 0.5846 0.7496
vn -0.1314 0.6147 -0.7778
vn -0.2719 0.4544 0.8483
vn -0.4478 0.5499 0.7051
vn 0.3891 0.5775 -0.7177
vn 0.6392 0.5310 0.5563
vn -0.7661 0.5589 0.3173
vn 0.8153 0.5777 -0.0387
vn 0.7520 0.5942 -0.2853
vn -0.7330 0.6087 -0.3036
vn -0.3992 0.5258 0.7512
vn -0.2940 0.6401 -0.7098
vn 0.8270 0.5021 -0.2531
vn -0.0000 -1.0000 -0.0000
s 0
usemtl Material.002
f 49//11 50//11 51//11
f 52//12 53//12 54//12
f 55//13 56//13 57//13
f 58//14 59//14 60//14
f 61//15 62//15 63//15
f 64//16 65//16 66//16
f 67//17 68//17 69//17
f 70//18 71//18 72//18
f 73//19 74//19 75//19
f 76//20 77//20 78//20
f 79//21 80//21 81//21
f 82//22 83//22 84//22
f 85//23 86//23 87//23
f 88//24 89//24 90//24
f 91//25 92//25 93//25
f 94//26 95//26 96//26
f 97//27 98//27 99//27
f 100//28 101//28 102//28
f 103//29 104//29 105//29
f 106//30 107//30 108//30
f 109//31 110//31 111//31
f 112//32 113//32 114//32
f 115//33 116//33 117//33
f 118//34 119//34 120//34
f 127//35 125//35 126//35
f 125//35 127//35 128//35
f 125//35 128//35 124//35
f 124//35 128//35 121//35
f 124//35 121//35 123//35
f 123//35 121//35 122//35
f 136//35 134//35 135//35
f 134//35 136//35 129//35
f 134//35 129//35 133//35
f 133//35 129//35 132//35
f 132//35 129//35 130//35
f 132//35 130//35 131//35
f 143//35 141//35 142//35
f 141//35 143//35 140//35
f 140//35 143//35 144//35
f 140//35 144//35 139//35
f 139//35 144//35 137//35
f 139//35 137//35 138//35
