# Blender 4.5.4 LTS
# www.blender.org
mtllib arvore4.mtl
o Object_4
v -0.044567 0.000000 -1.515622
v -0.044567 7.000002 -1.515622
v 0.662540 7.000002 -1.222728
v 0.662540 0.000000 -1.222728
v 0.662540 0.000000 -1.222728
v 0.662540 7.000002 -1.222728
v 0.955433 7.000002 -0.515621
v 0.955433 0.000000 -0.515621
v 0.955433 0.000000 -0.515621
v 0.955433 7.000002 -0.515621
v 0.662540 7.000002 0.191486
v 0.662540 0.000000 0.191486
v 0.662540 0.000000 0.191486
v 0.662540 7.000002 0.191486
v -0.044567 7.000002 0.484379
v -0.044567 0.000000 0.484379
v -0.044567 0.000000 0.484379
v -0.044567 7.000002 0.484379
v -0.751674 7.000002 0.191486
v -0.751674 0.000000 0.191486
v -0.751674 0.000000 0.191486
v -0.751674 7.000002 0.191486
v -1.044567 7.000002 -0.515621
v -1.044567 0.000000 -0.515621
v -1.044567 0.000000 -0.515621
v -1.044567 7.000002 -0.515621
v -0.751674 7.000002 -1.222728
v -0.751674 0.000000 -1.222728
v -0.751674 0.000000 -1.222728
v -0.751674 7.000002 -1.222728
v -0.044567 7.000002 -1.515622
v -0.044567 0.000000 -1.515622
v -0.044567 3.564741 -4.374290
v -0.044567 11.282077 -0.515621
v 2.683923 3.564741 -3.244112
v 2.683923 3.564741 -3.244112
v -0.044567 11.282077 -0.515621
v 3.814101 3.564741 -0.515621
v 3.814101 3.564741 -0.515621
v -0.044567 11.282077 -0.515621
v 2.683923 3.564741 2.212870
v 2.683923 3.564741 2.212870
v -0.044567 11.282077 -0.515621
v -0.044567 3.564741 3.343048
v -0.044567 3.564741 3.343048
v -0.044567 11.282077 -0.515621
v -2.773058 3.564741 2.212869
v -2.773058 3.564741 2.212869
v -0.044567 11.282077 -0.515621
v -3.903235 3.564741 -0.515621
v -3.903235 3.564741 -0.515621
v -0.044567 11.282077 -0.515621
v -2.773058 3.564741 -3.244112
v -2.773058 3.564741 -3.244112
v -0.044567 11.282077 -0.515621
v -0.044567 3.564741 -4.374290
v -0.044567 6.668552 -3.907141
v -0.044567 13.451589 -0.515621
v 2.353599 6.668552 -2.913787
v 2.353599 6.668552 -2.913787
v -0.044567 13.451589 -0.515621
v 3.346951 6.668552 -0.515621
v 3.346951 6.668552 -0.515621
v -0.044567 13.451589 -0.515621
v 2.353599 6.668552 1.882545
v 2.353599 6.668552 1.882545
v -0.044567 13.451589 -0.515621
v -0.044567 6.668552 2.875898
v -0.044567 6.668552 2.875898
v -0.044567 13.451589 -0.515621
v -2.442733 6.668552 1.882545
v -2.442733 6.668552 1.882545
v -0.044567 13.451589 -0.515621
v -3.436086 6.668552 -0.515621
v -3.436086 6.668552 -0.515621
v -0.044567 13.451589 -0.515621
v -2.442733 6.668552 -2.913787
v -2.442733 6.668552 -2.913787
v -0.044567 13.451589 -0.515621
v -0.044567 6.668552 -3.907141
v -0.044567 9.752482 -3.233923
v -0.044567 14.780153 -0.515621
v 1.877562 9.752482 -2.437751
v 1.877562 9.752482 -2.437751
v -0.044567 14.780153 -0.515621
v 2.673734 9.752482 -0.515621
v 2.673734 9.752482 -0.515621
v -0.044567 14.780153 -0.515621
v 1.877562 9.752482 1.406508
v 1.877562 9.752482 1.406508
v -0.044567 14.780153 -0.515621
v -0.044567 9.752482 2.202681
v -0.044567 9.752482 2.202681
v -0.044567 14.780153 -0.515621
v -1.966697 9.752482 1.406508
v -1.966697 9.752482 1.406508
v -0.044567 14.780153 -0.515621
v -2.762868 9.752482 -0.515621
v -2.762868 9.752482 -0.515621
v -0.044567 14.780153 -0.515621
v -1.966697 9.752482 -2.437751
v -1.966697 9.752482 -2.437751
v -0.044567 14.780153 -0.515621
v -0.044567 9.752482 -3.233923
vn 0.3474 0.4194 -0.8387
vn 0.8387 0.4194 -0.3474
vn 0.8387 0.4194 0.3474
vn 0.3474 0.4194 0.8387
vn -0.3474 0.4194 0.8387
vn -0.8387 0.4194 0.3474
vn -0.8387 0.4194 -0.3474
vn -0.3474 0.4194 -0.8387
vn 0.3423 0.4469 -0.8265
vn 0.8265 0.4469 -0.3423
vn 0.8265 0.4469 0.3423
vn 0.3423 0.4469 0.8265
vn -0.3423 0.4469 0.8265
vn -0.8265 0.4469 0.3423
vn -0.8265 0.4469 -0.3423
vn -0.3423 0.4469 -0.8265
vn 0.3827 -0.0000 -0.9239
vn 0.9239 -0.0000 -0.3827
vn 0.9239 -0.0000 0.3827
vn 0.3827 -0.0000 0.9239
vn -0.3827 -0.0000 0.9239
vn -0.9239 -0.0000 0.3827
vn -0.9239 -0.0000 -0.3827
vn -0.3827 -0.0000 -0.9239
vt 0.132936 0.907353
vt 0.344092 0.650441
vt 0.058666 0.821095
vt 0.017836 0.714844
vt 0.015228 0.601047
vt 0.051150 0.493037
vt 0.121392 0.403468
vt 0.217725 0.342834
vt 0.344092 0.982993
vt 0.231944 0.963512
vt 0.513264 0.917724
vt 0.698856 0.691914
vt 0.447985 0.841908
vt 0.412098 0.748520
vt 0.409807 0.648500
vt 0.441380 0.553566
vt 0.503118 0.474841
vt 0.587788 0.421547
vt 0.698856 0.984205
vt 0.600286 0.967084
vt 0.793090 0.896218
vt 0.971668 0.767237
vt 0.758755 0.823754
vt 0.752631 0.743801
vt 0.775531 0.666953
vt 0.824420 0.603394
vt 0.892820 0.561544
vt 0.971668 0.546950
vt 0.925063 0.982537
vt 0.851088 0.951591
vt 0.948486 0.324301
vt 0.678690 0.324301
vt 0.678690 0.353800
vt 0.948486 0.353800
vt 0.678690 0.383299
vt 0.948486 0.383299
vt 0.678690 0.412797
vt 0.948486 0.412797
vt 0.678690 0.442297
vt 0.948486 0.442296
vt 0.678690 0.471795
vt 0.948486 0.471795
vt 0.678690 0.501294
vt 0.948486 0.501294
vt 0.948486 0.265303
vt 0.678690 0.265303
vt 0.678690 0.294802
vt 0.948486 0.294802
s 0
usemtl arvore-1
f 33/1/1 34/2/1 35/3/1
f 36/3/2 37/2/2 38/4/2
f 39/4/3 40/2/3 41/5/3
f 42/5/4 43/2/4 44/6/4
f 45/6/5 46/2/5 47/7/5
f 48/7/6 49/2/6 50/8/6
f 51/9/7 52/2/7 53/10/7
f 54/10/8 55/2/8 56/1/8
f 57/11/1 58/12/1 59/13/1
f 60/13/2 61/12/2 62/14/2
f 63/14/3 64/12/3 65/15/3
f 66/15/4 67/12/4 68/16/4
f 69/16/5 70/12/5 71/17/5
f 72/17/6 73/12/6 74/18/6
f 75/19/7 76/12/7 77/20/7
f 78/20/8 79/12/8 80/11/8
f 81/21/9 82/22/9 83/23/9
f 84/23/10 85/22/10 86/24/10
f 87/24/11 88/22/11 89/25/11
f 90/25/12 91/22/12 92/26/12
f 93/26/13 94/22/13 95/27/13
f 96/27/14 97/22/14 98/28/14
f 99/29/15 100/22/15 101/30/15
f 102/30/16 103/22/16 104/21/16
f 1/31/17 2/32/17 3/33/17
f 1/31/17 3/33/17 4/34/17
f 5/34/18 6/33/18 7/35/18
f 5/34/18 7/35/18 8/36/18
f 9/36/19 10/35/19 11/37/19
f 9/36/19 11/37/19 12/38/19
f 13/38/20 14/37/20 15/39/20
f 13/38/20 15/39/20 16/40/20
f 17/40/21 18/39/21 19/41/21
f 17/40/21 19/41/21 20/42/21
s 1
f 21/42/22 22/41/22 23/43/22
f 21/42/22 23/43/22 24/44/22
s 0
f 25/45/23 26/46/23 27/47/23
f 25/45/23 27/47/23 28/48/23
f 29/48/24 30/47/24 31/32/24
f 29/48/24 31/32/24 32/31/24
