# Blender 4.5.4 LTS
# www.blender.org
mtllib barra.mtl
o Cube.001
v -1.000000 -6.000000 1.000000
v -1.000000 6.000000 1.000000
v -1.000000 -6.000000 -1.000000
v -1.000000 6.000000 -1.000000
v 1.000000 -6.000000 1.000000
v 1.000000 6.000000 1.000000
v 1.000000 -6.000000 -1.000000
v 1.000000 6.000000 -1.000000
vn -1.0000 -0.0000 -0.0000
vn -0.0000 -0.0000 -1.0000
vn 1.0000 -0.0000 -0.0000
vn -0.0000 -0.0000 1.0000
vn -0.0000 -1.0000 -0.0000
vn -0.0000 1.0000 -0.0000
vt 0.612006 0.748202
vt 0.489640 0.232992
vt 0.612006 0.232992
vt 0.489640 0.748202
vt 0.367274 0.232992
vt 0.367274 0.748202
vt 0.244908 0.232992
vt 0.734373 0.748202
vt 0.734373 0.232992
vt 0.489640 0.147124
vt 0.612006 0.834070
vt 0.489640 0.834070
vt 0.244908 0.748202
vt 0.612006 0.147124
s 1
usemtl Material.002
f 2/1/1 3/2/1 1/3/1
f 4/4/2 7/5/2 3/2/2
f 8/6/3 5/7/3 7/5/3
f 6/8/4 1/3/4 5/9/4
f 7/10/5 1/3/5 3/2/5
f 4/4/6 6/11/6 8/12/6
f 2/1/1 4/4/1 3/2/1
f 4/4/2 8/6/2 7/5/2
f 8/6/3 6/13/3 5/7/3
f 6/8/4 2/1/4 1/3/4
f 7/10/5 5/14/5 1/3/5
f 4/4/6 2/1/6 6/11/6
