# Blender 4.5.4 LTS
# www.blender.org
mtllib bloco_barra.mtl
o Cube
v -1.000000 -6.000000 1.000000
v -1.000000 6.000000 1.000000
v -1.000000 -6.000000 -1.000000
v -1.000000 6.000000 -1.000000
v 1.000000 -6.000000 1.000000
v 1.000000 6.000000 1.000000
v 1.000000 -6.000000 -1.000000
v 1.000000 6.000000 -1.000000
vn -1.0000 -0.0000 -0.0000
vn -0.0000 -0.0000 -1.0000
vn 1.0000 -0.0000 -0.0000
vn -0.0000 -0.0000 1.0000
vn -0.0000 -1.0000 -0.0000
vn -0.0000 1.0000 -0.0000
vt 0.588950 0.859387
vt 0.433783 0.180234
vt 0.588950 0.180234
vt 0.433783 0.859387
vt 0.278616 0.180234
vt 0.278616 0.859387
vt 0.123448 0.180234
vt 0.744118 0.859387
vt 0.744118 0.180234
vt 0.433783 0.067042
vt 0.588950 0.972579
vt 0.433783 0.972579
vt 0.123448 0.859387
vt 0.588950 0.067042
s 0
usemtl Material.002
f 2/1/1 3/2/1 1/3/1
f 4/4/2 7/5/2 3/2/2
f 8/6/3 5/7/3 7/5/3
f 6/8/4 1/3/4 5/9/4
f 7/10/5 1/3/5 3/2/5
f 4/4/6 6/11/6 8/12/6
f 2/1/1 4/4/1 3/2/1
f 4/4/2 8/6/2 7/5/2
f 8/6/3 6/13/3 5/7/3
f 6/8/4 2/1/4 1/3/4
f 7/10/5 5/14/5 1/3/5
f 4/4/6 2/1/6 6/11/6
