# Blender 4.5.4 LTS
# www.blender.org
mtllib estilingue2.mtl
o slingshot_hatlas_0
v 0.081352 0.085452 0.019939
v 0.092681 0.108617 0.007054
v 0.087541 0.109229 0.019551
v 0.086521 0.084718 0.007054
v 0.012824 -0.134526 0.019262
v 0.017881 -0.103904 0.007054
v 0.012824 -0.103904 0.019262
v 0.017881 -0.134526 0.007054
v 0.017881 -0.103904 0.007054
v 0.012824 -0.016120 -0.005154
v 0.017881 -0.016120 0.007054
v 0.012824 -0.103904 -0.005154
v 0.000617 -0.103904 0.024318
v 0.012824 -0.016120 0.019262
v 0.000617 -0.016120 0.024318
v 0.012824 -0.103904 0.019262
v 0.012824 -0.134526 -0.005154
v 0.000617 -0.103904 -0.010211
v 0.012824 -0.103904 -0.005154
v 0.000617 -0.134526 -0.010211
v 0.000617 -0.016120 -0.010211
v 0.000617 -0.103904 -0.010211
v 0.000617 -0.134526 0.024318
v 0.000617 -0.103904 0.024318
v 0.061260 0.024707 -0.005244
v 0.065768 0.022335 0.007054
v 0.000617 -0.001243 0.007054
v 0.050377 0.030433 0.024446
v 0.042537 0.034429 0.007054
v 0.050377 0.030433 -0.010338
v 0.061260 0.024707 0.019352
v 0.000617 -0.001243 0.007054
v 0.042537 0.034429 0.007054
v 0.087541 0.109229 -0.005443
v 0.087541 0.109229 0.019551
v 0.092681 0.108617 0.007054
v 0.075132 0.110707 -0.010620
v 0.075132 0.110707 0.024727
v 0.066239 0.111649 0.007054
v 0.081352 0.085452 -0.005832
v 0.075132 0.110707 -0.010620
v 0.087541 0.109229 -0.005443
v 0.068874 0.087223 -0.011169
v 0.059930 0.088376 0.007054
v 0.075132 0.110707 0.024727
v 0.066239 0.111649 0.007054
v 0.068874 0.087223 0.025276
v 0.066239 0.111649 0.007054
v 0.059930 0.088376 0.007054
v 0.081352 0.085452 -0.005832
v 0.086521 0.084718 0.007054
v 0.081352 0.085452 0.019939
v 0.068874 0.087223 0.025276
v 0.059930 0.088376 0.007054
v 0.068874 0.087223 -0.011169
v 0.059930 0.088376 0.007054
v 0.012824 -0.134526 0.019262
v 0.012824 -0.134526 -0.005154
v 0.017881 -0.134526 0.007054
v 0.000617 -0.134526 0.024318
v 0.000617 -0.134526 -0.010211
v -0.011591 -0.134526 0.019262
v -0.016647 -0.103904 0.007054
v -0.016647 -0.134526 0.007054
v -0.011591 -0.103904 0.019262
v -0.016647 -0.103904 0.007054
v -0.011591 -0.016120 -0.005154
v -0.011591 -0.103904 -0.005154
v -0.016647 -0.016120 0.007054
v -0.011591 -0.016120 0.019262
v -0.011591 -0.103904 0.019262
v -0.011591 -0.134526 -0.005154
v -0.011591 -0.103904 -0.005154
v -0.060027 0.024707 -0.005244
v -0.064535 0.022335 0.007054
v -0.049143 0.030433 0.024446
v -0.041304 0.034429 0.007054
v -0.049143 0.030433 -0.010338
v -0.080119 0.085452 0.019939
v -0.091448 0.108617 0.007054
v -0.085287 0.084718 0.007054
v -0.086308 0.109229 0.019551
v -0.060027 0.024707 0.019352
v -0.041304 0.034429 0.007054
v -0.073898 0.110707 -0.010620
v -0.073898 0.110707 0.024727
v -0.065006 0.111649 0.007054
v -0.086308 0.109229 -0.005443
v -0.086308 0.109229 0.019551
v -0.091448 0.108617 0.007054
v -0.080119 0.085452 -0.005832
v -0.073898 0.110707 -0.010620
v -0.067641 0.087223 -0.011169
v -0.086308 0.109229 -0.005443
v -0.058696 0.088376 0.007054
v -0.073898 0.110707 0.024727
v -0.067641 0.087223 0.025276
v -0.065006 0.111649 0.007054
v -0.065006 0.111649 0.007054
v -0.058696 0.088376 0.007054
v -0.080119 0.085452 -0.005832
v -0.085287 0.084718 0.007054
v -0.080119 0.085452 0.019939
v -0.067641 0.087223 0.025276
v -0.058696 0.088376 0.007054
v -0.067641 0.087223 -0.011169
v -0.058696 0.088376 0.007054
v -0.011591 -0.134526 0.019262
v -0.011591 -0.134526 -0.005154
v -0.016647 -0.134526 0.007054
v -0.067641 0.087223 0.025276
v -0.067641 0.087223 0.025276
v -0.067641 0.087223 -0.011169
v -0.067641 0.087223 -0.011169
v -0.073898 0.110707 -0.010620
v -0.049143 0.030433 -0.010338
v 0.050377 0.030433 0.024446
v -0.011591 -0.016120 -0.005154
v 0.000617 -0.016120 -0.010211
v 0.000617 -0.016120 -0.010211
v 0.000617 -0.016120 -0.010211
v 0.000617 -0.134526 -0.010211
v 0.000617 -0.103904 -0.010211
v 0.000617 -0.103904 -0.010211
v -0.016647 -0.134526 0.007054
v 0.068874 0.087223 -0.011169
v 0.068874 0.087223 -0.011169
v 0.000617 -0.134526 0.024318
v 0.000617 -0.016120 0.024318
v 0.000617 -0.016120 0.024318
v 0.000617 -0.016120 0.024318
v 0.000617 -0.103904 0.024318
v 0.000617 -0.103904 0.024318
v -0.073898 0.110707 0.024727
v 0.017881 -0.134526 0.007054
v 0.012824 -0.016120 -0.005154
v 0.017881 -0.103904 0.007054
v 0.017881 -0.103904 0.007054
v 0.017881 -0.016120 0.007054
v 0.017881 -0.016120 0.007054
v 0.075132 0.110707 -0.010620
v 0.075132 0.110707 0.024727
v -0.086308 0.109229 -0.005443
v 0.050377 0.030433 -0.010338
v 0.087541 0.109229 -0.005443
v 0.068874 0.087223 0.025276
v 0.068874 0.087223 0.025276
v 0.000617 -0.001243 0.007054
v 0.000617 -0.001243 0.007054
v -0.016647 -0.103904 0.007054
v -0.016647 -0.103904 0.007054
v -0.016647 -0.016120 0.007054
v -0.016647 -0.016120 0.007054
v -0.049143 0.030433 0.024446
vn 0.6477 -0.2021 0.7346
vn 0.9598 -0.2460 0.1353
vn 0.5918 -0.1396 0.7939
vn 0.9531 -0.2972 0.0570
vn 0.7972 -0.0000 0.6038
vn 0.9239 -0.0000 0.3827
vn 0.7526 -0.0000 0.6585
vn 0.9239 -0.0000 -0.3827
vn 0.6777 -0.1120 -0.7268
vn 0.6585 -0.0000 -0.7526
vn 0.3827 -0.0000 0.9239
vn 0.6314 -0.2872 0.7203
vn 0.3448 -0.1947 0.9183
vn 0.6038 -0.0000 -0.7972
vn 0.3827 -0.0000 -0.9239
vn 0.3813 -0.0859 -0.9205
vn 0.6269 -0.7681 -0.1301
vn 0.5759 -0.4312 -0.6946
vn 0.8282 -0.5598 -0.0269
vn 0.6224 -0.7390 -0.2578
vn -0.5838 0.6502 0.4862
vn -0.6870 0.5410 0.4851
vn -0.7916 0.4153 0.4482
vn -0.5791 0.6176 0.5322
vn 0.3269 -0.2715 -0.9052
vn 0.6268 -0.3857 0.6770
vn 0.3371 -0.1888 0.9223
vn -0.7355 0.4803 -0.4779
vn -0.5838 0.6502 -0.4861
vn -0.7451 0.4931 -0.4492
vn -0.5791 0.6176 -0.5322
vn 0.1182 0.9930 -0.0000
vn 0.1146 0.9934 -0.0000
vn 0.1129 0.9936 -0.0000
vn 0.1054 0.9944 -0.0000
vn 0.7235 -0.2273 -0.6518
vn 0.3787 -0.0815 -0.9219
vn 0.3753 -0.0826 -0.9232
vn 0.3709 -0.1235 -0.9204
vn -0.8599 0.2584 0.4403
vn -0.8643 0.2374 0.4434
vn -0.8634 0.2341 0.4469
vn -0.8562 0.2678 0.4418
vn -0.8603 0.2570 -0.4403
vn -0.8644 0.2375 -0.4433
vn -0.8620 0.2401 -0.4465
vn -0.8565 0.2668 -0.4418
vn 0.3760 -0.1110 0.9200
vn 0.3758 -0.0786 0.9234
vn 0.8975 -0.2294 -0.3767
vn 0.6477 -0.2022 0.7346
vn -0.0000 -1.0000 -0.0000
vn -0.7972 -0.0000 0.6038
vn -0.9239 -0.0000 0.3827
vn -0.7526 -0.0000 0.6585
vn -0.9239 -0.0000 -0.3827
vn -0.6777 -0.1120 -0.7268
vn -0.6585 -0.0000 -0.7526
vn -0.3827 -0.0000 0.9239
vn -0.6314 -0.2872 0.7203
vn -0.3448 -0.1947 0.9183
vn -0.6038 -0.0000 -0.7972
vn -0.3827 -0.0000 -0.9239
vn -0.3813 -0.0859 -0.9205
vn -0.6269 -0.7681 -0.1301
vn -0.5759 -0.4312 -0.6946
vn -0.6224 -0.7390 -0.2578
vn -0.8282 -0.5598 -0.0269
vn 0.5838 0.6502 0.4862
vn 0.6870 0.5410 0.4851
vn 0.5791 0.6176 0.5322
vn 0.7916 0.4153 0.4482
vn -0.3269 -0.2715 -0.9052
vn -0.6477 -0.2021 0.7346
vn -0.9598 -0.2460 0.1353
vn -0.9531 -0.2972 0.0570
vn -0.5918 -0.1396 0.7939
vn -0.6268 -0.3857 0.6770
vn -0.3371 -0.1888 0.9223
vn 0.7355 0.4803 -0.4779
vn 0.5838 0.6502 -0.4862
vn 0.5791 0.6176 -0.5322
vn 0.7451 0.4931 -0.4492
vn -0.1128 0.9936 -0.0000
vn -0.1146 0.9934 -0.0000
vn -0.1054 0.9944 -0.0000
vn -0.1182 0.9930 -0.0000
vn -0.7235 -0.2273 -0.6518
vn -0.3787 -0.0815 -0.9219
vn -0.3709 -0.1235 -0.9204
vn -0.3753 -0.0826 -0.9232
vn 0.8599 0.2584 0.4403
vn 0.8643 0.2374 0.4434
vn 0.8562 0.2678 0.4418
vn 0.8634 0.2341 0.4469
vn 0.8603 0.2570 -0.4403
vn 0.8644 0.2375 -0.4433
vn 0.8565 0.2668 -0.4418
vn 0.8620 0.2401 -0.4465
vn -0.3760 -0.1110 0.9200
vn -0.3758 -0.0786 0.9234
vn -0.8975 -0.2294 -0.3767
vn -0.6477 -0.2022 0.7346
vt 0.153559 0.502031
vt 0.152827 0.501725
vt 0.152887 0.502104
vt 0.153499 0.501662
vt 0.160271 0.501353
vt 0.159465 0.501102
vt 0.159499 0.501435
vt 0.160234 0.501024
vt 0.100602 0.495934
vt 0.092012 0.495292
vt 0.091911 0.496780
vt 0.100500 0.494805
vt 0.100854 0.498241
vt 0.092250 0.498214
vt 0.092925 0.499301
vt 0.100719 0.497072
vt 0.160199 0.500696
vt 0.159409 0.500443
vt 0.159435 0.500771
vt 0.160167 0.500370
vt 0.092488 0.494071
vt 0.100411 0.493683
vt 0.160310 0.501686
vt 0.159539 0.501776
vt 0.085704 0.496263
vt 0.085764 0.497334
vt 0.091952 0.501348
vt 0.086106 0.499494
vt 0.086364 0.501332
vt 0.085703 0.495144
vt 0.085901 0.498396
vt 0.091142 0.492226
vt 0.085616 0.493284
vt 0.164409 0.506947
vt 0.164734 0.507553
vt 0.164697 0.507183
vt 0.164039 0.506984
vt 0.164499 0.507841
vt 0.164052 0.507529
vt 0.153490 0.501288
vt 0.152842 0.500957
vt 0.152815 0.501341
vt 0.153516 0.500916
vt 0.153764 0.502932
vt 0.152984 0.502476
vt 0.153092 0.503021
vt 0.153654 0.502392
vt 0.152847 0.500401
vt 0.153524 0.500364
vt 0.080173 0.496572
vt 0.080206 0.497850
vt 0.080411 0.499112
vt 0.080733 0.500345
vt 0.080290 0.493414
vt 0.080262 0.495300
vt 0.081110 0.502192
vt 0.159284 0.499619
vt 0.158615 0.499686
vt 0.158963 0.499791
vt 0.159389 0.499271
vt 0.158443 0.499365
s 1
usemtl hatlas
f 1/1/1 2/2/2 3/3/3
f 1/1/1 4/4/4 2/2/2
f 5/5/5 6/6/6 7/7/7
f 5/5/5 8/8/6 6/6/6
f 138/9/8 10/10/9 11/11/8
f 138/9/8 12/12/10 10/10/9
f 13/13/11 14/14/12 15/15/13
f 13/13/11 16/16/7 14/14/12
f 17/17/14 18/18/15 19/19/10
f 17/17/14 20/20/15 18/18/15
f 135/8/8 19/19/10 137/6/8
f 135/8/8 17/17/14 19/19/10
f 12/12/10 21/21/16 10/10/9
f 12/12/10 22/22/15 21/21/16
f 16/16/7 139/11/6 14/14/12
f 16/16/7 9/9/6 139/11/6
f 23/23/11 7/7/7 24/24/11
f 23/23/11 5/5/5 7/7/7
f 140/11/17 25/25/18 26/26/19
f 140/11/17 136/10/20 25/25/18
f 27/27/21 28/28/22 29/29/23
f 27/27/21 129/15/24 28/28/22
f 10/10/9 30/30/25 25/25/18
f 10/10/9 21/21/16 30/30/25
f 15/15/13 31/31/26 117/28/27
f 15/15/13 14/14/12 31/31/26
f 14/14/12 26/26/19 31/31/26
f 14/14/12 140/11/17 26/26/19
f 144/30/28 32/32/29 33/33/30
f 144/30/28 119/21/31 32/32/29
s 0
f 34/34/32 35/35/32 36/36/32
s 1
f 35/35/32 34/34/32 37/37/33
f 35/35/32 37/37/33 38/38/34
f 38/38/34 37/37/33 39/39/35
f 40/40/36 41/41/37 42/42/38
f 40/40/36 43/43/39 41/41/37
f 44/44/40 45/45/41 46/46/42
f 44/44/40 47/47/43 45/45/41
f 126/43/44 48/48/45 141/41/46
f 126/43/44 49/49/47 48/48/45
f 146/47/48 3/3/3 142/45/49
f 146/47/48 1/1/1 3/3/3
f 4/4/4 145/42/50 2/2/2
f 4/4/4 40/40/36 145/42/50
f 26/26/19 50/50/36 51/51/4
f 26/26/19 25/25/18 50/50/36
f 117/28/27 52/52/51 147/53/48
f 117/28/27 31/31/26 52/52/51
f 144/30/28 54/54/47 127/55/44
f 144/30/28 33/33/30 54/54/47
f 29/29/23 53/53/43 56/56/40
f 29/29/23 28/28/22 53/53/43
f 25/25/18 55/55/39 50/50/36
f 25/25/18 30/30/25 55/55/39
f 31/31/26 51/51/4 52/52/51
f 31/31/26 26/26/19 51/51/4
s 0
f 57/57/52 58/58/52 59/59/52
f 58/58/52 57/57/52 60/60/52
f 58/58/52 60/60/52 61/61/52
s 1
f 62/5/53 63/6/54 64/8/54
f 62/5/53 65/7/55 63/6/54
f 151/9/56 67/10/57 68/12/58
f 151/9/56 69/11/56 67/10/57
f 132/13/59 70/14/60 71/16/55
f 132/13/59 130/15/61 70/14/60
f 72/17/62 123/18/63 122/20/63
f 72/17/62 73/19/58 123/18/63
f 125/8/56 73/19/58 72/17/62
f 125/8/56 150/6/56 73/19/58
f 68/12/58 120/21/64 124/22/63
f 68/12/58 67/10/57 120/21/64
f 71/16/55 152/11/54 66/9/54
f 71/16/55 70/14/60 152/11/54
f 128/23/59 65/7/55 62/5/53
f 128/23/59 133/24/59 65/7/55
f 153/11/65 74/25/66 118/10/67
f 153/11/65 75/26/68 74/25/66
f 148/27/69 76/28/70 131/15/71
f 148/27/69 77/29/72 76/28/70
f 67/10/57 78/30/73 120/21/64
f 67/10/57 74/25/66 78/30/73
f 79/1/74 80/2/75 81/4/76
f 79/1/74 82/3/77 80/2/75
f 130/15/61 83/31/78 70/14/60
f 130/15/61 154/28/79 83/31/78
f 70/14/60 75/26/68 153/11/65
f 70/14/60 83/31/78 75/26/68
f 116/30/80 149/32/81 121/21/82
f 116/30/80 84/33/83 149/32/81
f 85/37/84 86/38/85 87/39/86
f 86/38/85 85/37/84 88/34/87
f 86/38/85 88/34/87 89/35/87
s 0
f 89/35/87 88/34/87 90/36/87
s 1
f 91/40/88 92/41/89 93/43/90
f 91/40/88 94/42/91 92/41/89
f 95/44/92 96/45/93 97/47/94
f 95/44/92 98/46/95 96/45/93
f 113/43/96 99/48/97 100/49/98
f 113/43/96 115/41/99 99/48/97
f 111/47/100 82/3/77 79/1/74
f 111/47/100 134/45/101 82/3/77
f 81/4/76 143/42/102 91/40/88
f 81/4/76 80/2/75 143/42/102
f 75/26/68 101/50/88 74/25/66
f 75/26/68 102/51/76 101/50/88
f 154/28/79 103/52/103 83/31/78
f 154/28/79 112/53/100 103/52/103
f 116/30/80 105/54/98 84/33/83
f 116/30/80 114/55/96 105/54/98
f 77/29/72 104/53/94 76/28/70
f 77/29/72 107/56/92 104/53/94
f 74/25/66 106/55/90 78/30/73
f 74/25/66 101/50/88 106/55/90
f 83/31/78 102/51/76 75/26/68
f 83/31/78 103/52/103 102/51/76
s 0
f 108/57/52 61/61/52 60/60/52
f 61/61/52 108/57/52 109/58/52
f 109/58/52 108/57/52 110/59/52
