# Blender 4.5.4 LTS
# www.blender.org
mtllib slingshot.mtl
o Estilingue_Material.003_0
v -0.043779 0.244514 0.021409
v -0.043779 0.244514 0.021409
v -0.043779 0.244514 -0.021409
v -0.043779 0.244514 -0.021409
v -0.044272 0.248921 0.021409
v -0.044272 0.248921 0.021409
v -0.044272 0.248921 0.021409
v -0.044272 0.248921 0.022233
v -0.044272 0.248921 0.022233
v -0.044272 0.248921 -0.021409
v -0.044272 0.248921 -0.021409
v -0.044272 0.248921 -0.021409
v -0.044272 0.248921 -0.022233
v -0.044272 0.248921 -0.022233
v -0.059755 0.312863 0.021409
v -0.059755 0.312863 0.022233
v -0.059755 0.312863 0.022233
v -0.059755 0.312863 -0.021409
v -0.059755 0.312863 -0.022233
v -0.059755 0.312863 -0.022233
v -0.083167 0.244514 -0.021409
v -0.083167 0.244514 -0.021409
v -0.083167 0.244514 0.021409
v -0.083167 0.244514 0.021409
v -0.083659 0.248921 -0.021409
v -0.083659 0.248921 -0.021409
v -0.083659 0.248921 -0.021409
v -0.083659 0.248921 -0.022233
v -0.083659 0.248921 -0.022233
v -0.083659 0.248921 0.021409
v -0.083659 0.248921 0.021409
v -0.083659 0.248921 0.021409
v -0.083659 0.248921 0.022233
v -0.083659 0.248921 0.022233
v -0.084483 0.248921 -0.021409
v -0.084483 0.248921 -0.021409
v -0.084483 0.248921 0.021409
v -0.084483 0.248921 0.021409
v -0.099143 0.312863 -0.021409
v -0.099143 0.312863 -0.021409
v -0.099143 0.312863 -0.022233
v -0.099143 0.312863 -0.022233
v -0.099143 0.312863 0.021409
v -0.099143 0.312863 0.021409
v -0.099143 0.312863 0.022233
v -0.099143 0.312863 0.022233
v -0.099966 0.312863 -0.021409
v -0.099966 0.312863 -0.021409
v -0.099966 0.312863 0.021409
v -0.099966 0.312863 0.021409
v 0.043448 0.248921 -0.021409
v 0.043448 0.248921 -0.021409
v 0.043448 0.248921 0.021409
v 0.043448 0.248921 0.021409
v 0.043779 0.244514 -0.021409
v 0.043779 0.244514 -0.021409
v 0.043779 0.244514 0.021409
v 0.043779 0.244514 0.021409
v 0.044272 0.248921 -0.021409
v 0.044272 0.248921 -0.021409
v 0.044272 0.248921 -0.021409
v 0.044272 0.248921 -0.022233
v 0.044272 0.248921 -0.022233
v 0.044272 0.248921 0.021409
v 0.044272 0.248921 0.021409
v 0.044272 0.248921 0.021409
v 0.044272 0.248921 0.022233
v 0.044272 0.248921 0.022233
v 0.058932 0.312863 -0.021409
v 0.058932 0.312863 -0.021409
v 0.058932 0.312863 0.021409
v 0.058932 0.312863 0.021409
v 0.059755 0.312863 -0.021409
v 0.059755 0.312863 -0.021409
v 0.059755 0.312863 -0.022233
v 0.059755 0.312863 -0.022233
v 0.059755 0.312863 0.021409
v 0.059755 0.312863 0.021409
v 0.059755 0.312863 0.022233
v 0.059755 0.312863 0.022233
v 0.083167 0.244514 -0.021409
v 0.083167 0.244514 -0.021409
v 0.083167 0.244514 0.021409
v 0.083167 0.244514 0.021409
v 0.083659 0.248921 -0.021409
v 0.083659 0.248921 -0.021409
v 0.083659 0.248921 -0.021409
v 0.083659 0.248921 -0.022233
v 0.083659 0.248921 -0.022233
v 0.083659 0.248921 0.021409
v 0.083659 0.248921 0.021409
v 0.083659 0.248921 0.021409
v 0.083659 0.248921 0.022233
v 0.083659 0.248921 0.022233
v 0.099143 0.312863 -0.021409
v 0.099143 0.312863 -0.022233
v 0.099143 0.312863 -0.022233
v 0.099143 0.312863 0.021409
v 0.099143 0.312863 0.022233
v 0.099143 0.312863 0.022233
vn -0.0000 -0.0000 -1.0000
vn 0.9719 0.2353 -0.0000
vn -0.9719 0.2353 -0.0000
vn -0.0000 -0.0000 1.0000
vn 0.9719 -0.2354 -0.0000
vn -0.9719 -0.2354 -0.0000
vn 0.9938 0.1112 -0.0000
vn -0.9938 0.1112 -0.0000
vn -0.9938 -0.1110 -0.0000
vn 0.9938 -0.1110 -0.0000
vn -0.9719 -0.2353 -0.0000
vn -0.9719 0.2354 -0.0000
vt 0.625000 0.750000
vt 0.791667 0.250000
vt 0.625000 0.167735
vt 0.625000 0.165598
vt 0.625000 0.250000
vt 0.625000 0.500000
vt 0.791667 0.500000
vt 0.708333 0.250000
vt 0.708333 0.500000
vt 0.625000 0.665598
vt 0.625000 0.666667
vt 0.625000 0.166667
vt 0.625000 0.584402
vt 0.625000 0.583333
vt 0.625000 1.000000
vt 0.625000 0.084402
vt 0.625000 0.001069
vt 0.625000 0.000000
vt 0.625000 0.083333
vt 0.625000 0.582265
vt 0.625000 0.667735
vt 0.625000 -0.001069
vt 0.625000 0.082265
s 1
usemtl Material.003
f 39/1/1 25/1/1 35/1/1
f 39/1/1 35/1/1 47/1/1
f 6/2/2 15/2/2 17/2/2
f 6/2/2 17/2/2 9/2/2
f 78/3/3 65/4/3 68/4/3
f 78/3/3 68/4/3 80/3/3
f 64/4/4 77/3/4 71/3/4
f 64/4/4 71/3/4 53/4/4
f 91/5/5 86/6/5 95/6/5
f 91/5/5 95/6/5 98/5/5
f 26/1/6 40/1/6 42/1/6
f 26/1/6 42/1/6 29/1/6
f 6/2/2 11/7/2 18/7/2
f 6/2/2 18/7/2 15/2/2
f 12/7/7 7/2/7 2/2/7
f 12/7/7 2/2/7 4/7/7
f 66/8/8 61/9/8 56/9/8
f 66/8/8 56/9/8 58/8/8
f 25/1/1 10/10/1 3/11/1
f 25/1/1 3/11/1 21/1/1
f 90/5/4 64/4/4 57/12/4
f 90/5/4 57/12/4 83/5/4
f 59/13/1 85/6/1 81/6/1
f 59/13/1 81/6/1 55/14/1
f 32/15/9 27/1/9 22/1/9
f 32/15/9 22/1/9 24/15/9
f 87/6/10 92/5/10 84/5/10
f 87/6/10 84/5/10 82/6/10
f 5/16/4 30/17/4 23/18/4
f 5/16/4 23/18/4 1/19/4
f 88/6/1 62/13/1 75/20/1
f 88/6/1 75/20/1 96/6/1
f 13/10/1 28/1/1 41/1/1
f 13/10/1 41/1/1 19/21/1
f 18/7/2 11/7/2 14/7/2
f 18/7/2 14/7/2 20/7/2
f 60/9/3 74/9/3 76/9/3
f 60/9/3 76/9/3 63/9/3
f 95/6/5 86/6/5 89/6/5
f 95/6/5 89/6/5 97/6/5
f 36/1/11 38/15/11 50/15/11
f 36/1/11 50/15/11 48/1/11
f 52/9/12 54/8/12 72/8/12
f 52/9/12 72/8/12 70/9/12
f 73/9/1 59/9/1 51/9/1
f 73/9/1 51/9/1 69/9/1
f 30/17/4 43/22/4 49/22/4
f 30/17/4 49/22/4 37/17/4
f 33/17/4 8/16/4 16/23/4
f 33/17/4 16/23/4 45/22/4
f 44/22/6 31/17/6 34/17/6
f 44/22/6 34/17/6 46/22/6
f 67/4/4 93/5/4 99/5/4
f 67/4/4 99/5/4 79/3/4
f 91/5/5 98/5/5 100/5/5
f 91/5/5 100/5/5 94/5/5
o Estilingue_Material.004_0
v -0.003431 0.160195 0.020586
v -0.003431 0.160195 0.020586
v -0.003431 0.160195 0.020586
v -0.003431 0.160195 0.020586
v -0.003431 -0.016984 0.012351
v -0.003431 -0.016984 0.012351
v -0.003431 0.160195 -0.020586
v -0.003431 0.160195 -0.020586
v -0.003431 0.160195 -0.020586
v -0.003431 0.160195 -0.020586
v -0.003431 -0.016984 -0.012351
v -0.003431 -0.016984 -0.012351
v -0.024703 -0.016984 0.012351
v -0.024703 -0.016984 0.012351
v -0.024703 -0.016984 0.012351
v -0.024703 -0.016984 -0.012351
v -0.024703 -0.016984 -0.012351
v -0.024703 -0.016984 -0.012351
v -0.041172 0.160195 -0.020586
v -0.041172 0.160195 -0.020586
v -0.041172 0.160195 -0.020586
v -0.041172 0.160195 -0.020586
v -0.041172 0.160195 0.020586
v -0.041172 0.160195 0.020586
v -0.041172 0.160195 0.020586
v -0.041172 0.160195 0.020586
v -0.043779 0.244514 0.021409
v -0.043779 0.244514 0.021409
v -0.043779 0.244514 -0.021409
v -0.043779 0.244514 -0.021409
v -0.044603 0.242538 -0.020586
v -0.044603 0.242538 -0.020586
v -0.044603 0.242538 -0.020586
v -0.044603 0.242538 -0.020586
v -0.044603 0.242538 0.020586
v -0.044603 0.242538 0.020586
v -0.044603 0.242538 0.020586
v -0.044603 0.242538 0.020586
v -0.059755 0.312863 0.021409
v -0.059755 0.312863 0.021409
v -0.059755 0.312863 -0.021409
v -0.059755 0.312863 -0.021409
v -0.060248 0.317271 0.021409
v -0.060248 0.317271 0.021409
v -0.060248 0.317271 0.021409
v -0.060248 0.317271 -0.021409
v -0.060248 0.317271 -0.021409
v -0.060248 0.317271 -0.021409
v -0.082343 0.242538 -0.020586
v -0.082343 0.242538 -0.020586
v -0.082343 0.242538 -0.020586
v -0.082343 0.242538 -0.020586
v -0.082343 0.242538 0.020586
v -0.082343 0.242538 0.020586
v -0.082343 0.242538 0.020586
v -0.082343 0.242538 0.020586
v -0.083167 0.244514 -0.021409
v -0.083167 0.244514 -0.021409
v -0.083167 0.244514 0.021409
v -0.083167 0.244514 0.021409
v -0.083659 0.248921 -0.021409
v -0.083659 0.248921 0.021409
v -0.084483 0.248921 -0.021409
v -0.084483 0.248921 0.021409
v -0.099143 0.312863 -0.021409
v -0.099143 0.312863 -0.021409
v -0.099143 0.312863 0.021409
v -0.099143 0.312863 0.021409
v -0.099635 0.317271 -0.021409
v -0.099635 0.317271 -0.021409
v -0.099635 0.317271 -0.021409
v -0.099635 0.317271 0.021409
v -0.099635 0.317271 0.021409
v -0.099635 0.317271 0.021409
v 0.003431 0.160195 -0.020586
v 0.003431 0.160195 -0.020586
v 0.003431 0.160195 -0.020586
v 0.003431 0.160195 -0.020586
v 0.003431 -0.016984 -0.012351
v 0.003431 -0.016984 -0.012351
v 0.003431 0.160195 0.020586
v 0.003431 0.160195 0.020586
v 0.003431 0.160195 0.020586
v 0.003431 0.160195 0.020586
v 0.003431 -0.016984 0.012351
v 0.003431 -0.016984 0.012351
v 0.024703 -0.016984 -0.012351
v 0.024703 -0.016984 -0.012351
v 0.024703 -0.016984 -0.012351
v 0.024703 -0.016984 0.012351
v 0.024703 -0.016984 0.012351
v 0.024703 -0.016984 0.012351
v 0.041172 0.160195 -0.020586
v 0.041172 0.160195 -0.020586
v 0.041172 0.160195 -0.020586
v 0.041172 0.160195 -0.020586
v 0.041172 0.160195 0.020586
v 0.041172 0.160195 0.020586
v 0.041172 0.160195 0.020586
v 0.041172 0.160195 0.020586
v 0.043779 0.244514 -0.021409
v 0.043779 0.244514 -0.021409
v 0.043779 0.244514 0.021409
v 0.043779 0.244514 0.021409
v 0.044603 0.242538 -0.020586
v 0.044603 0.242538 -0.020586
v 0.044603 0.242538 -0.020586
v 0.044603 0.242538 -0.020586
v 0.044603 0.242538 0.020586
v 0.044603 0.242538 0.020586
v 0.044603 0.242538 0.020586
v 0.044603 0.242538 0.020586
v 0.058932 0.312863 -0.021409
v 0.058932 0.312863 0.021409
v 0.059755 0.312863 -0.021409
v 0.059755 0.312863 -0.021409
v 0.059755 0.312863 -0.021409
v 0.059755 0.312863 0.021409
v 0.059755 0.312863 0.021409
v 0.059755 0.312863 0.021409
v 0.060248 0.317271 -0.021409
v 0.060248 0.317271 -0.021409
v 0.060248 0.317271 -0.021409
v 0.060248 0.317271 0.021409
v 0.060248 0.317271 0.021409
v 0.060248 0.317271 0.021409
v 0.082343 0.242538 -0.020586
v 0.082343 0.242538 -0.020586
v 0.082343 0.242538 -0.020586
v 0.082343 0.242538 -0.020586
v 0.082343 0.242538 0.020586
v 0.082343 0.242538 0.020586
v 0.082343 0.242538 0.020586
v 0.082343 0.242538 0.020586
v 0.083167 0.244514 -0.021409
v 0.083167 0.244514 -0.021409
v 0.083167 0.244514 0.021409
v 0.083167 0.244514 0.021409
v 0.099143 0.312863 -0.021409
v 0.099143 0.312863 -0.021409
v 0.099143 0.312863 0.021409
v 0.099143 0.312863 0.021409
v 0.099635 0.317271 -0.021409
v 0.099635 0.317271 -0.021409
v 0.099635 0.317271 -0.021409
v 0.099635 0.317271 0.021409
v 0.099635 0.317271 0.021409
v 0.099635 0.317271 0.021409
vn -0.0000 -0.0000 -1.0000
vn -0.0000 -0.0464 0.9989
vn -0.9957 -0.0926 -0.0000
vn -0.0000 -1.0000 -0.0000
vn 0.9957 -0.0926 -0.0000
vn -0.0000 -0.0464 -0.9989
vn -0.0000 -0.0000 1.0000
vn -0.0000 1.0000 -0.0000
vn -0.0000 -0.3848 -0.9230
vn -0.0000 -0.3845 -0.9231
vn 0.9230 -0.3849 -0.0000
vn 0.9231 -0.3846 -0.0000
vn -0.8944 0.4472 -0.0000
vn -0.8944 -0.4472 -0.0000
vn 0.8944 -0.4472 -0.0000
vn 0.8944 0.4472 -0.0000
vn -0.0000 -0.3845 0.9231
vn -0.0000 -0.3849 0.9230
vn -0.9231 -0.3846 -0.0000
vn -0.9230 -0.3849 -0.0000
vn -0.9231 -0.3844 -0.0000
vn -0.0000 -0.3848 0.9230
vn 0.9231 -0.3844 -0.0000
vn -0.0000 -0.3849 -0.9230
vn 0.9938 0.1111 -0.0000
vn -0.9938 0.1111 -0.0000
vn -0.9938 -0.1115 -0.0000
vn 0.9938 -0.1115 -0.0000
vt 0.625000 0.500000
vt 0.625000 0.583333
vt 0.375000 0.083333
vt 0.625000 0.083333
vt 0.625000 0.000000
vt 0.375000 0.000000
vt 0.375000 1.000000
vt 0.625000 1.000000
vt 0.625000 0.750000
vt 0.375000 0.750000
vt 0.291667 0.500000
vt 0.375000 0.500000
vt 0.375000 0.250000
vt 0.291667 0.250000
vt 0.625000 0.250000
vt 0.375000 0.583333
vt 0.625000 0.666667
vt 0.375000 0.666667
vt 0.125000 0.500000
vt 0.208333 0.500000
vt 0.208333 0.250000
vt 0.125000 0.250000
vt 0.625000 0.166667
vt 0.375000 0.166667
vt 0.708333 0.500000
vt 0.791667 0.500000
vt 0.791667 0.250000
vt 0.708333 0.250000
vt 0.625000 0.667735
vt 0.625000 0.167735
vt 0.625000 0.582265
vt 0.625000 -0.001069
vt 0.625000 0.082265
s 1
usemtl Material.004
f 193/24/13 175/25/13 205/25/13
f 193/24/13 205/25/13 227/24/13
f 105/26/14 103/27/14 124/28/14
f 105/26/14 124/28/14 113/29/14
f 115/30/15 126/31/15 122/32/15
f 115/30/15 122/32/15 118/33/15
f 180/34/16 188/35/16 191/36/16
f 180/34/16 191/36/16 186/37/16
f 189/35/17 196/24/17 200/38/17
f 189/35/17 200/38/17 192/36/17
f 179/39/18 177/25/18 194/24/18
f 179/39/18 194/24/18 187/35/18
f 116/33/18 120/32/18 109/40/18
f 116/33/18 109/40/18 111/41/18
f 111/41/18 109/40/18 177/25/18
f 111/41/18 177/25/18 179/39/18
f 117/42/16 112/43/16 106/44/16
f 117/42/16 106/44/16 114/45/16
f 112/43/16 180/34/16 186/37/16
f 112/43/16 186/37/16 106/44/16
f 190/36/14 198/38/14 183/46/14
f 190/36/14 183/46/14 185/47/14
f 185/47/14 183/46/14 103/27/14
f 185/47/14 103/27/14 105/26/14
f 181/46/19 197/38/19 231/38/19
f 181/46/19 231/38/19 209/46/19
f 176/48/20 108/49/20 102/50/20
f 176/48/20 102/50/20 182/51/20
f 132/40/21 150/32/21 157/32/22
f 132/40/21 157/32/22 129/40/22
f 138/50/23 134/49/24 130/49/24
f 138/50/23 130/49/24 128/50/23
f 123/28/19 101/27/19 135/27/19
f 123/28/19 135/27/19 153/28/19
f 178/48/25 184/51/25 211/51/25
f 178/48/25 211/51/25 207/48/25
f 121/32/26 125/31/26 155/31/26
f 121/32/26 155/31/26 151/32/26
f 107/40/13 119/32/13 149/32/13
f 107/40/13 149/32/13 131/40/13
f 199/38/27 195/24/27 229/24/27
f 199/38/27 229/24/27 233/38/27
f 104/50/28 110/49/28 133/49/28
f 104/50/28 133/49/28 137/50/28
f 154/28/29 136/27/29 127/27/30
f 154/28/29 127/27/30 159/28/29
f 152/32/31 156/31/32 160/31/33
f 152/32/31 160/31/33 158/32/32
f 210/46/34 232/38/34 237/38/29
f 210/46/34 237/38/29 203/46/29
f 208/48/32 212/51/31 204/51/31
f 208/48/32 204/51/31 202/48/32
f 234/38/24 230/24/23 236/24/35
f 234/38/24 236/24/35 238/38/23
f 228/24/22 206/25/22 201/25/36
f 228/24/22 201/25/36 235/24/22
f 144/50/20 147/49/20 170/32/20
f 144/50/20 170/32/20 173/31/20
f 247/38/20 244/24/20 222/48/20
f 247/38/20 222/48/20 225/46/20
f 140/50/37 142/49/37 148/49/37
f 140/50/37 148/49/37 145/50/37
f 217/48/38 220/51/38 226/51/38
f 217/48/38 226/51/38 223/48/38
f 141/52/13 165/32/13 169/32/13
f 141/52/13 169/32/13 146/40/13
f 218/53/19 241/38/19 246/38/19
f 218/53/19 246/38/19 224/46/19
f 239/24/13 215/54/13 221/25/13
f 239/24/13 221/25/13 243/24/13
f 166/32/39 168/31/39 174/31/39
f 166/32/39 174/31/39 171/32/39
f 242/38/40 240/24/40 245/24/40
f 242/38/40 245/24/40 248/38/40
f 167/55/19 139/56/19 143/27/19
f 167/55/19 143/27/19 172/28/19
f 219/51/20 216/48/20 213/48/20
f 219/51/20 213/48/20 214/51/20
f 161/32/16 162/31/16 164/31/16
f 161/32/16 164/31/16 163/32/16
